<svg xmlns="http://www.w3.org/2000/svg" width="30" height="31" viewBox="0 0 512 538" version="1.1"><path d="" stroke="none" fill="#a09ca4" fill-rule="evenodd"/><path d="M 210 75.108 C 169.934 79.643, 131.662 98.316, 103.319 127.158 C 88.380 142.361, 78.608 155.775, 70.112 172.742 C 51.643 209.629, 46.298 252.312, 55.114 292.500 C 71.086 365.300, 130.696 420.509, 205.128 431.439 C 225.705 434.461, 254.245 433.044, 273.901 428.025 C 296.451 422.268, 319.778 411.211, 337.552 397.855 L 342.604 394.059 395.052 446.565 C 452.498 504.074, 453.469 504.893, 462.693 503.629 C 468.507 502.832, 472.436 500.554, 476.349 495.713 C 478.875 492.588, 479.480 490.823, 479.812 485.619 C 480.104 481.024, 479.749 478.388, 478.503 475.906 C 477.563 474.033, 452.962 448.616, 423.834 419.425 L 370.874 366.349 378.611 354.925 C 435.144 271.450, 413.133 159.911, 329 103.521 C 295.456 81.038, 251.127 70.454, 210 75.108 M 217.500 113.628 C 168.812 118.920, 126.532 147.851, 105.115 190.530 C 99.316 202.086, 95.772 212.211, 92.766 225.817 C 89.639 239.964, 89.692 267.158, 92.874 281.957 C 98.929 310.121, 111.182 332.422, 131.910 353.012 C 152.336 373.301, 174.641 385.370, 203 391.478 C 214.389 393.931, 238.377 394.523, 250.500 392.650 C 310.861 383.322, 357.782 337.696, 368.686 277.724 C 370.958 265.232, 370.935 241.647, 368.639 229 C 358.350 172.319, 314.389 127.491, 257.780 115.955 C 247.934 113.949, 226.137 112.690, 217.500 113.628" stroke="none" fill="#9c9ca4" fill-rule="evenodd"/></svg>